# xmcd CD database file
#
# Track frame offsets:
#	150
#	18046
#	37832
#	65295
#	84544
#	103467
#	125036
#	146750
#	170183
#	198182
#	217364
#	238015
#	249925
#	273945
#	310496
#
# Disc length: 4381 seconds
#
# Revision: 2
# Processed by: cddbd v1.5.2PL0 Copyright (c) Steve Scherf et al.
# Submitted via: CDex 1.81
#
DISCID=de111b0f
DTITLE=European Jazz Trio - All Time Best No.1s [Disc 1]
DYEAR=2013
DGENRE=Jazz
TTITLE0=Norwegian Wood 
TTITLE1=Eleanor Rigby 
TTITLE2=Day Dreams 
TTITLE3=Night Train 
TTITLE4=Someone's Waiting For You
TTITLE5=For No One
TTITLE6=The Big Blue Overture
TTITLE7=The Windmills Of Your Mind
TTITLE8=Che Vuole Questa Musika Stasera
TTITLE9=Endless Love 
TTITLE10=Libertang
TTITLE11=24 Capricci per violino solo op.1
TTITLE12=Ouverture Nr.3 BWV.1068 
TTITLE13=Europa
TTITLE14=Maria~West Side Story 
EXTD=YEAR: 2013
EXTT0=
EXTT1=
EXTT2=
EXTT3=
EXTT4=
EXTT5=
EXTT6=
EXTT7=
EXTT8=
EXTT9=
EXTT10=
EXTT11=
EXTT12=
EXTT13=
EXTT14=
PLAYORDER=
